<svg xmlns="http://www.w3.org/2000/svg" xml:space="preserve" fill-rule="evenodd" stroke-linejoin="round" stroke-miterlimit="2" clip-rule="evenodd" viewBox="0 0 120 120"><path fill="#dee830" d="M120 11.978v96.044c0 6.611-5.367 11.978-11.978 11.978H11.978C5.367 120 0 114.633 0 108.022V11.978C0 5.367 5.367 0 11.978 0h96.044C114.633 0 120 5.367 120 11.978"/><path fill="none" d="M111.467 45.294c.24 14.98-8.72 29.96-21.13 41.92l.2.34h25.31v-61.6h-29.54c13.67 2 24.92 4.46 25.16 19.34"/><path fill-rule="nonzero" d="M38.937 87.604h-20.59l6.51-11.28c3.56 4.93 8.42 8.86 14.08 11.28M51.497 30.174v57.37c-10.48-.21-19.7-5.67-25.12-13.85zM111.467 45.294c.24 14.98-8.72 29.96-21.13 41.92l-8.52-14.77c2.51-4.7 3.93-10.07 3.93-15.76 0-13.69-8.23-25.5-20.01-30.73h20.57c13.67 2 24.92 4.46 25.16 19.34M50.837 25.854l-26.06 45.13a30.6 30.6 0 0 1-3.52-14.3c0-16.59 13.16-30.16 29.58-30.83"/><path fill-rule="nonzero" d="M86.957 90.324c-15.48 13.6-35.16 22.53-49.27 21.65-27.71-1.74-37.83-40.84-36.12-63.04 2.39-30.81 22.48-51.55 48.22-35.27 6.91 4.37 14 7.45 21.28 9.45-10.42-.02-18.59-.04-18.94-.04-18.54 0-33.62 15.08-33.62 33.61 0 6.23 1.7 12.07 4.66 17.07l-8.36 14.48-.39.74.84 1.38z"/><path fill-rule="nonzero" d="M82.947 54.994h-11.21l-16.76-29.04c15.14 1.39 27.15 13.75 27.97 29.04M87.397 87.604h-22.08s.08-.03.11-.05a33.8 33.8 0 0 0 14.78-12.4l7.16 12.4zM78.657 72.464c-5.06 8.46-14.04 14.31-24.41 15.02v-29.74h15.91zM68.567 54.994h-14.32v-24.8zM82.977 57.744c-.14 4.21-1.13 8.22-2.81 11.84l-6.84-11.84z"/><path fill-rule="nonzero" d="M116.577 23.194s-26.49-.05-45.5-.09c3.27.9 6.58 1.59 9.92 2.08 1.8.26 3.58.51 5.33.77h29.54v61.6h-25.31l-.2-.34c-1.1 1.06-2.23 2.09-3.38 3.11h29.61c1.12-.01 2.03-.92 2.03-2.04v-63.04c0-1.12-.91-2.03-2.03-2.03z"/></svg>
